PathFileType	4	(X/Y/Z)	/Users/visionmauri/Downloads/Videos/OAW02-top_Sports2D/OAW02-top_Sports2D_m_person00.trc
DataRate	CameraRate	NumFrames	NumMarkers	Units	OrigDataRate	OrigDataStartFrame	OrigNumFrames
30.0	30.0	7	22	m	30.0	1618	2158
Frame#	Time	Hip			RHip			RKnee			RAnkle			RBigToe			RSmallToe			RHeel			LHip			LKnee			LAnkle			LBigToe			LSmallToe			LHeel			Neck			Head			Nose			RShoulder			RElbow			RWrist			LShoulder			LElbow			LWrist			
		X1	Y1	Z1	X2	Y2	Z2	X3	Y3	Z3	X4	Y4	Z4	X5	Y5	Z5	X6	Y6	Z6	X7	Y7	Z7	X8	Y8	Z8	X9	Y9	Z9	X10	Y10	Z10	X11	Y11	Z11	X12	Y12	Z12	X13	Y13	Z13	X14	Y14	Z14	X15	Y15	Z15	X16	Y16	Z16	X17	Y17	Z17	X18	Y18	Z18	X19	Y19	Z19	X20	Y20	Z20	X21	Y21	Z21	X22	Y22	Z22
1618	53.958337196723846	5.314591531919607	0.2643574458911606	0.0301	5.304504754284198	0.23451149907335245	0.0301	5.409756885065401	0.19203560711525738	0.129	5.495024123861263	0.16238644610215971	0.023	5.543148930362874	0.1459952628986347	0.2179	5.531060545779239	0.13107855498744408	0.1804	5.507123054908456	0.1607658307898458	-0.0119	5.328918277885981	0.29266550436928956	0.0301	5.4372155498743195	0.24301568799611548	0.129	5.528412343491927	0.2031733242285489	0.023	5.566256140622814	0.18210823075611082	0.2179	5.569639469620448	0.20042381037110799	0.1804	5.537339042457128	0.19545907638809068	-0.0119	5.146791071112462	0.33659179213812934	0.0008	5.075853032535189	0.36743332045095894	0.0655	5.144108018817474	0.3390657890284036	0.1076	5.140890725953638	0.2752221350632084	-0.01275	5.215198752848569	0.217590027660294	0.0702	5.285515933984547	0.17459273188832564	0.1076	5.181814629739205	0.3886493423018261	-0.01275	5.267041523064265	0.3791365118934609	0.0702	5.341116708903637	0.37289390103480546	0.1076
1619	53.99168598361923	5.314238497299661	0.26513265168435746	0.0301	5.303788921311196	0.2351221453395694	0.0301	5.411691982180465	0.19377802329722568	0.129	5.501114359835841	0.1634180250325796	0.023	5.549104931268276	0.14527961694578026	0.2179	5.53697375485598	0.13106028922216573	0.1804	5.515270983236269	0.16174274755784657	-0.0119	5.328664379578401	0.2941038466361757	0.0301	5.437767374907437	0.24348428823175777	0.129	5.528068421813126	0.2028144435925951	0.023	5.566527944004563	0.1818540992006329	0.2179	5.56986668325305	0.2000495143283467	0.1804	5.537279634733821	0.19539558115850447	-0.0119	5.146521419366938	0.3376420565077899	0.0008	5.07237717533363	0.3680046868991356	0.0655	5.1430490054345945	0.33918574241271204	0.1076	5.140228025136637	0.27616234064075623	-0.01275	5.215298148148533	0.21798603714967635	0.0702	5.28506369606349	0.17373541213862423	0.1076	5.181722378951984	0.3902188978863937	-0.01275	5.266873702100522	0.38132159733879867	0.0702	5.341240623348039	0.37429015311680985	0.1076
1620	54.02503477051461	5.315324183927876	0.26544792440245024	0.0301	5.3045956010580575	0.23505950116561125	0.0301	5.414985189136716	0.19486999211925216	0.129	5.5068359624658125	0.1650791637338153	0.023	5.555502060281275	0.14567440372303453	0.2179	5.543642141716442	0.13195321410499875	0.1804	5.522780714804875	0.16298155017274563	-0.0119	5.329671971947137	0.2949041549390984	0.0301	5.43861319136554	0.24418607548849997	0.129	5.527302283990619	0.20259145477257032	0.023	5.56682494962845	0.18179917853049063	0.2179	5.569737458539977	0.19953452552497786	0.1804	5.5379871426728355	0.1955046442399448	-0.0119	5.14671504808092	0.33844016394290927	0.0008	5.065599287161566	0.3694313895403398	0.0655	5.141478019842313	0.3390724050545739	0.1076	5.139639187680362	0.2773598776211747	-0.01275	5.21510601639183	0.21842439626377264	0.0702	5.284314548815973	0.17341968926942267	0.1076	5.180968850705291	0.39182475950877427	-0.01275	5.26789008462144	0.38315876757455003	0.0702	5.342326617633743	0.37453179662613084	0.1076
1621	54.05838355740999	5.317435506825448	0.26565147782154075	0.0301	5.306805396410464	0.2347908762326153	0.0301	5.4185070872455166	0.19558534836554167	0.129	5.512754946398969	0.16717053913112873	0.023	5.561534142957189	0.14839668705152526	0.2179	5.550371190468848	0.13453796365857879	0.1804	5.530760721950777	0.16388113431409426	-0.0119	5.331636243188246	0.2948392674066222	0.0301	5.439321403241934	0.24477689349362755	0.129	5.5261564917506325	0.2027019855334537	0.023	5.567151644720864	0.18223684158957995	0.2179	5.569252356571848	0.19955676472764208	0.1804	5.539258010295819	0.1955845802434288	-0.0119	5.1477866874074785	0.3389050722748685	0.0008	5.059853605597498	0.3704005848634111	0.0655	5.140058215281449	0.3389552919920296	0.1076	5.1399656436761205	0.2786189329636476	-0.01275	5.215155271652869	0.2188633131175535	0.0702	5.283635540644468	0.17316638503237705	0.1076	5.180704522949199	0.3931493817050747	-0.01275	5.269546333636447	0.3848377261672371	0.0702	5.344367014356582	0.37511628839314265	0.1076
1622	54.09173234430536	5.318977687178093	0.26576538777066294	0.0301	5.308991023115769	0.23470088139100048	0.0301	5.42046674966803	0.1967086470353338	0.129	5.518007145931172	0.16954587950436348	0.023	5.566348979156013	0.1528491065133175	0.2179	5.556183744668028	0.13838378492460912	0.1804	5.537977361749696	0.16490623896220039	-0.0119	5.333258918801261	0.2943785471823327	0.0301	5.439484761257979	0.24507569869212323	0.129	5.525375850200557	0.20295431021558705	0.023	5.567876323901193	0.18377674248540185	0.2179	5.568997827199355	0.2006681004835601	0.1804	5.540806138554252	0.19545263716880962	-0.0119	5.149586588794884	0.33915457966343227	0.0008	5.059401216594893	0.37005523500033766	0.0655	5.14066967899236	0.3388149022090392	0.1076	5.141420541325331	0.27925708333673815	-0.01275	5.21583309153971	0.21913623340196997	0.0702	5.283135136860189	0.17270829417140102	0.1076	5.1818551822793975	0.393820772735196	-0.01275	5.2708962166770075	0.38642070682748714	0.0702	5.345859152984996	0.3762608468513671	0.1076
1623	54.125081131200744	5.319373300666159	0.2655681162262125	0.0301	5.310175105870019	0.2346289303919296	0.0301	5.420863309366152	0.19837200683809122	0.129	5.5215061221923865	0.1721548585715901	0.023	5.5698277520175115	0.15738111820250414	0.2179	5.560464708283979	0.14243930930784282	0.1804	5.542542456018831	0.16657599795645084	-0.0119	5.333811101391508	0.2940501199935723	0.0301	5.439388345258364	0.24520169827642088	0.129	5.525195481401035	0.20317676020556047	0.023	5.569153771078798	0.18627408254389188	0.2179	5.569205937639955	0.20249531789940653	0.1804	5.541763250023786	0.19565633784911587	-0.0119	5.1515512736091615	0.33919464885443473	0.0008	5.062935670373834	0.3691710310864297	0.0655	5.1441277662603415	0.33837822213144536	0.1076	5.143315920732706	0.2789034350069711	-0.01275	5.216721274607233	0.21914610142765387	0.0702	5.282564697191699	0.17198428133509805	0.1076	5.183856019252709	0.3940202432823449	-0.01275	5.271584896827618	0.3874173285390044	0.0702	5.3461867477623946	0.37694445850171415	0.1076
1624	54.158429918096125	5.320137433148274	0.2652313697185077	0.0301	5.311333244979951	0.2341070948725948	0.0301	5.421694973468092	0.20012233706374763	0.129	5.523688721743867	0.17522710963640184	0.023	5.5728342136746765	0.16176744006752272	0.2179	5.56388497347274	0.1467261202229216	0.1804	5.544563874142354	0.16865936697691508	-0.0119	5.3346156279847765	0.29365991242397615	0.0301	5.440000568329453	0.2452452641710599	0.129	5.5251867586257575	0.20332415510450735	0.023	5.570411244772984	0.1886160758850472	0.2179	5.56915564838351	0.20375341094705898	0.1804	5.541672513700722	0.196523436054996	-0.0119	5.1524900113526115	0.33927651480820886	0.0008	5.067463691769804	0.3685836585171129	0.0655	5.148266364522072	0.3380192735759127	0.1076	5.144823432181325	0.2781182429056576	-0.01275	5.21744423434203	0.21868440913221435	0.0702	5.282289699547665	0.17096990858903457	0.1076	5.185703447408782	0.39407253444165596	-0.01275	5.271846832692282	0.3873642473256794	0.0702	5.346049684851638	0.37692169249050644	0.1076
